<svg width="73" height="73" viewBox="0 0 73 73" fill="none" xmlns="http://www.w3.org/2000/svg">
<path d="M58.035 32.485C46.355 25.55 26.8275 24.82 15.695 28.2875C13.87 28.835 12.045 27.74 11.4975 26.0975C10.95 24.2725 12.045 22.4475 13.6875 21.9C26.645 18.0675 47.9975 18.7975 61.5025 26.8275C63.145 27.74 63.6925 29.93 62.78 31.5725C61.8675 32.85 59.6775 33.3975 58.035 32.485ZM57.67 42.705C56.7575 43.9825 55.115 44.53 53.8375 43.6175C43.9825 37.595 29.0175 35.77 17.52 39.42C16.06 39.785 14.4175 39.055 14.0525 37.595C13.6875 36.135 14.4175 34.4925 15.8775 34.1275C29.2 30.1125 45.625 32.12 56.94 39.055C58.035 39.6025 58.5825 41.4275 57.67 42.705ZM53.29 52.7425C52.56 53.8375 51.2825 54.2025 50.1875 53.4725C41.61 48.18 30.8425 47.085 18.0675 50.005C16.79 50.37 15.695 49.4575 15.33 48.3625C14.965 47.085 15.8775 45.99 16.9725 45.625C30.8425 42.5225 42.8875 43.8 52.3775 49.64C53.655 50.1875 53.8375 51.6475 53.29 52.7425ZM36.5 0C31.7068 0 26.9604 0.944101 22.5321 2.7784C18.1037 4.61269 14.0799 7.30126 10.6906 10.6906C3.84552 17.5357 0 26.8196 0 36.5C0 46.1804 3.84552 55.4643 10.6906 62.3094C14.0799 65.6987 18.1037 68.3873 22.5321 70.2216C26.9604 72.0559 31.7068 73 36.5 73C46.1804 73 55.4643 69.1545 62.3094 62.3094C69.1545 55.4643 73 46.1804 73 36.5C73 31.7068 72.0559 26.9604 70.2216 22.5321C68.3873 18.1037 65.6987 14.0799 62.3094 10.6906C58.9201 7.30126 54.8963 4.61269 50.4679 2.7784C46.0396 0.944101 41.2933 0 36.5 0Z" fill="white"/>
</svg>
